<svg t="1768458079787" class="icon" viewBox="0 0 1365 1024" version="1.1" xmlns="http://www.w3.org/2000/svg" p-id="3337" width="200" height="200"><path d="M976.310085 945.239615l-6.300831 12.601661q-30.979085 64.583516-69.309139 64.583516t-73.509693-72.459554v-5.775762l-85.061216-163.821601-6.8259-5.775762q-33.079362-68.78407-68.78407-68.78407t-61.433101 60.382962l-8.926177 16.802216L511.098742 945.239615l-6.300831 12.601661Q472.768688 1024 437.06398 1024t-64.583516-60.908031L364.079356 945.239615 26.984906 271.575785a248.357749 248.357749 0 0 1-19.427561-57.757616A271.460795 271.460795 0 0 1 0.206375 157.635761 152.795148 152.795148 0 0 1 43.262053 43.170667 149.119663 149.119663 0 0 1 154.051661 0.11499q80.335593 0 154.895425 147.019386L315.247917 157.635761l183.774232 363.347911a177.998471 177.998471 0 0 0 32.029224 46.206093 47.7813 47.7813 0 0 0 33.079362 13.6518 52.506924 52.506924 0 0 0 37.804985-16.277146 55.657339 55.657339 0 0 0 15.227007-39.905262 94.512462 94.512462 0 0 0-12.601661-39.380193L597.735166 472.677302 498.49708 271.575785a280.386972 280.386972 0 0 1-20.4777-57.757616A242.581987 242.581987 0 0 1 469.618272 157.635761 151.21994 151.21994 0 0 1 512.14888 44.220806 153.845286 153.845286 0 0 1 625.038766 0.11499q82.43587 0 157.520771 151.21994a9.451246 9.451246 0 0 1 0 4.725623l91.887116 179.573679 15.227008 33.079362q63.008308 130.74224 136.518001 130.742239a112.364816 112.364816 0 0 0 84.536147-31.504154 116.040301 116.040301 0 0 0 33.604431-85.061216 330.793619 330.793619 0 0 0-33.604431-105.013847 330.793619 330.793619 0 0 1-32.554292-126.016617 157.520771 157.520771 0 0 1 38.855123-108.689332 139.668417 139.668417 0 0 1 105.013847-42.530608 128.116894 128.116894 0 0 1 100.813293 46.731162A170.647502 170.647502 0 0 1 1365.386389 162.361384a219.478941 219.478941 0 0 1-8.926178 60.908031 310.315918 310.315918 0 0 1-29.928946 67.733932z" fill="#50A8E1" p-id="3338" data-spm-anchor-id="a313x.search_index.0.i2.5c283a812pmgTh" class="selected"></path></svg>